<svg width="102" height="48" viewBox="0 0 102 48" fill="none" xmlns="http://www.w3.org/2000/svg">
<rect x="0.5" y="0.5" width="101" height="47" rx="23.5" fill="#FF9F76" stroke="#122E21"/>
<path d="M23.5767 31.32C22.1101 31.32 20.8634 31.0067 19.8367 30.38C18.8101 29.74 18.0367 28.86 17.5167 27.74C16.9967 26.62 16.7367 25.34 16.7367 23.9C16.7367 22.42 17.0034 21.1133 17.5367 19.98C18.0701 18.8467 18.8567 17.9667 19.8967 17.34C20.9501 16.7 22.2101 16.38 23.6767 16.38C25.5701 16.38 27.0501 16.8933 28.1167 17.92C29.1967 18.9333 29.8234 20.3 29.9967 22.02H26.3167C26.1701 21.1533 25.8834 20.4867 25.4567 20.02C25.0434 19.5533 24.3967 19.32 23.5167 19.32C22.3967 19.32 21.5967 19.7133 21.1167 20.5C20.6501 21.2733 20.4167 22.3867 20.4167 23.84C20.4167 25.2933 20.6501 26.4133 21.1167 27.2C21.5967 27.9867 22.3967 28.38 23.5167 28.38C24.4101 28.38 25.0634 28.1467 25.4767 27.68C25.9034 27.2 26.1834 26.52 26.3167 25.64H29.9967C29.8901 26.76 29.5767 27.7467 29.0567 28.6C28.5367 29.4533 27.8101 30.12 26.8767 30.6C25.9567 31.08 24.8567 31.32 23.5767 31.32ZM33.9192 31.32C32.9192 31.32 32.1259 31.0467 31.5392 30.5C30.9526 29.9533 30.6592 29.2267 30.6592 28.32C30.6592 27.3333 30.9992 26.5867 31.6792 26.08C32.3726 25.5733 33.3392 25.1867 34.5792 24.92C34.6592 24.8933 34.8059 24.8667 35.0192 24.84C35.7659 24.68 36.3259 24.52 36.6992 24.36C37.0859 24.1867 37.2792 23.9 37.2792 23.5C37.2792 23.2067 37.1659 22.98 36.9392 22.82C36.7126 22.66 36.3726 22.58 35.9192 22.58C35.3326 22.58 34.8926 22.7 34.5992 22.94C34.3192 23.18 34.1526 23.5533 34.0992 24.06H31.0592C31.1126 22.9933 31.5526 22.12 32.3792 21.44C33.2059 20.76 34.4326 20.42 36.0592 20.42C37.4992 20.42 38.5792 20.7533 39.2992 21.42C40.0192 22.0733 40.3792 23.16 40.3792 24.68V28.64C40.3792 28.9333 40.4059 29.14 40.4592 29.26C40.5126 29.3667 40.6126 29.42 40.7592 29.42C40.8526 29.42 40.9392 29.4133 41.0192 29.4V30.92C40.3792 31.04 39.7926 31.1 39.2592 31.1C38.6459 31.1 38.1926 30.9933 37.8992 30.78C37.6059 30.5533 37.4192 30.2133 37.3392 29.76H37.2992C36.9259 30.24 36.4459 30.62 35.8592 30.9C35.2726 31.18 34.6259 31.32 33.9192 31.32ZM33.9392 27.98C33.9392 28.3667 34.0526 28.6533 34.2792 28.84C34.5059 29.0267 34.8326 29.12 35.2592 29.12C35.8726 29.12 36.3592 28.9 36.7192 28.46C37.0926 28.02 37.2792 27.4867 37.2792 26.86V26C36.9726 26.12 36.3926 26.28 35.5392 26.48C34.9659 26.6133 34.5526 26.8067 34.2992 27.06C34.0592 27.3 33.9392 27.6067 33.9392 27.98ZM45.5683 31H42.3683V20.76H45.5683V22.44H45.6083C45.8616 21.8933 46.2016 21.4667 46.6283 21.16C47.0683 20.84 47.5616 20.68 48.1083 20.68C48.4549 20.68 48.7483 20.7067 48.9883 20.76V23.56C48.7349 23.52 48.5149 23.5 48.3283 23.5C47.5549 23.5 46.9016 23.74 46.3683 24.22C45.8349 24.6867 45.5683 25.36 45.5683 26.24V31ZM53.2636 31H50.0636V20.76H53.2636V22.44H53.3036C53.5569 21.8933 53.8969 21.4667 54.3236 21.16C54.7636 20.84 55.2569 20.68 55.8036 20.68C56.1503 20.68 56.4436 20.7067 56.6836 20.76V23.56C56.4303 23.52 56.2103 23.5 56.0236 23.5C55.2503 23.5 54.5969 23.74 54.0636 24.22C53.5303 24.6867 53.2636 25.36 53.2636 26.24V31ZM62.4464 31.34C61.3397 31.34 60.3731 31.1133 59.5464 30.66C58.7331 30.2067 58.1064 29.5733 57.6664 28.76C57.2264 27.9333 57.0064 26.98 57.0064 25.9C57.0064 24.82 57.2264 23.8667 57.6664 23.04C58.1064 22.2133 58.7397 21.5733 59.5664 21.12C60.4064 20.6533 61.3864 20.42 62.5064 20.42C63.6131 20.42 64.5731 20.6467 65.3864 21.1C66.2131 21.5533 66.8464 22.1933 67.2864 23.02C67.7264 23.8333 67.9464 24.7733 67.9464 25.84C67.9464 26.92 67.7264 27.88 67.2864 28.72C66.8464 29.5467 66.2131 30.1933 65.3864 30.66C64.5597 31.1133 63.5797 31.34 62.4464 31.34ZM60.2464 25.88C60.2464 26.8667 60.4397 27.6267 60.8264 28.16C61.2131 28.68 61.7664 28.94 62.4864 28.94C63.1931 28.94 63.7397 28.68 64.1264 28.16C64.5131 27.6267 64.7064 26.8667 64.7064 25.88C64.7064 24.8933 64.5131 24.14 64.1264 23.62C63.7397 23.0867 63.1931 22.82 62.4864 22.82C61.7664 22.82 61.2131 23.0867 60.8264 23.62C60.4397 24.14 60.2464 24.8933 60.2464 25.88ZM73.068 31.2C71.948 31.2 71.1346 30.9267 70.628 30.38C70.1213 29.82 69.868 28.92 69.868 27.68V23.16H68.448V20.76H69.868V17.9H73.068V20.76H74.848V23.16H73.068V27.6C73.068 28.1067 73.148 28.4333 73.308 28.58C73.4813 28.7267 73.748 28.8 74.108 28.8C74.348 28.8 74.6346 28.7733 74.968 28.72V30.98C74.3413 31.1267 73.708 31.2 73.068 31.2ZM80.8927 31.32C79.2127 31.32 77.9593 30.9733 77.1327 30.28C76.306 29.5867 75.8727 28.6933 75.8327 27.6H78.8327C78.926 28.6133 79.5927 29.12 80.8327 29.12C81.7393 29.12 82.1927 28.8267 82.1927 28.24C82.1927 27.9867 82.1127 27.7867 81.9527 27.64C81.7927 27.48 81.586 27.36 81.3327 27.28C81.0927 27.2 80.7127 27.1067 80.1927 27L79.6927 26.88C78.586 26.6267 77.6993 26.26 77.0327 25.78C76.366 25.3 76.0327 24.5933 76.0327 23.66C76.0327 22.6867 76.426 21.9067 77.2127 21.32C77.9993 20.7333 79.0993 20.44 80.5127 20.44C82.046 20.44 83.1927 20.7667 83.9527 21.42C84.7127 22.0733 85.1193 22.9 85.1727 23.9H82.1727C82.1193 23.4733 81.966 23.16 81.7127 22.96C81.4727 22.7467 81.0927 22.64 80.5727 22.64C79.7327 22.64 79.3127 22.9133 79.3127 23.46C79.3127 23.74 79.4193 23.9333 79.6327 24.04C79.846 24.1467 80.2793 24.2733 80.9327 24.42L81.4527 24.54C82.2927 24.74 82.986 24.96 83.5327 25.2C84.0927 25.4267 84.5527 25.7667 84.9127 26.22C85.286 26.66 85.4727 27.2533 85.4727 28C85.4727 29.0667 85.0793 29.8867 84.2927 30.46C83.506 31.0333 82.3727 31.32 80.8927 31.32Z" fill="#122E21"/>
</svg>
