<svg preserveAspectRatio="none" width="100%" height="100%" overflow="visible" style="display: block;" viewBox="0 0 20.305 20.305" fill="none" xmlns="http://www.w3.org/2000/svg">
<path id="Vector" d="M8.6625 12.275L6.32625 9.93875C6.16025 9.77275 5.95675 9.68975 5.71575 9.68975C5.47475 9.68975 5.26133 9.78108 5.0755 9.96375C4.90967 10.1336 4.82675 10.3388 4.82675 10.5795C4.82675 10.82 4.91167 11.0232 5.0815 11.1892L8.05975 14.1925C8.23158 14.3623 8.432 14.4473 8.661 14.4473C8.89 14.4473 9.09142 14.3623 9.26525 14.1925L15.1685 8.28325C15.3552 8.10058 15.4485 7.88975 15.4485 7.65075C15.4485 7.41175 15.3552 7.19942 15.1685 7.01375C14.9858 6.84775 14.7698 6.76892 14.5205 6.77725C14.2712 6.78558 14.062 6.87275 13.893 7.03875L8.6625 12.275ZM10.1503 20.305C8.75925 20.305 7.44642 20.0393 6.21175 19.508C4.97725 18.9767 3.899 18.25 2.977 17.328C2.055 16.406 1.32833 15.328 0.797 14.094C0.265667 12.86 0 11.5474 0 10.1562C0 8.74858 0.265667 7.42742 0.797 6.19275C1.32833 4.95825 2.05467 3.88408 2.976 2.97025C3.89733 2.05625 4.97517 1.33275 6.2095 0.79975C7.44383 0.266583 8.75675 0 10.1483 0C11.5563 0 12.8778 0.266416 14.113 0.799249C15.348 1.33208 16.4223 2.05517 17.3358 2.9685C18.2494 3.88183 18.9727 4.95583 19.5055 6.1905C20.0385 7.42517 20.305 8.74683 20.305 10.1555C20.305 11.5472 20.0384 12.8602 19.5052 14.0947C18.9722 15.3292 18.2487 16.4072 17.3347 17.3287C16.4209 18.2502 15.347 18.9767 14.113 19.508C12.879 20.0393 11.5581 20.305 10.1503 20.305ZM10.1495 18.6017C12.5002 18.6017 14.4956 17.7788 16.1358 16.133C17.7758 14.487 18.5957 12.4945 18.5957 10.1555C18.5957 7.80483 17.7758 5.80942 16.1358 4.16925C14.4956 2.52925 12.4992 1.70925 10.1465 1.70925C7.8105 1.70925 5.81925 2.52925 4.17275 4.16925C2.52642 5.80942 1.70325 7.80583 1.70325 10.1585C1.70325 12.4945 2.52617 14.4857 4.172 16.1322C5.818 17.7786 7.8105 18.6017 10.1495 18.6017Z" fill="var(--fill-0, #FFC155)"/>
</svg>
