<svg width="140" height="48" viewBox="0 0 140 48" fill="none" xmlns="http://www.w3.org/2000/svg">
<rect x="0.5" y="0.5" width="139" height="47" rx="23.5" fill="#80DDDC" stroke="#122E21"/>
<path d="M28.524 31.32C27.0573 31.32 25.8107 31.0067 24.784 30.38C23.7573 29.74 22.984 28.86 22.464 27.74C21.944 26.62 21.684 25.34 21.684 23.9C21.684 22.42 21.9507 21.1133 22.484 19.98C23.0173 18.8467 23.804 17.9667 24.844 17.34C25.8973 16.7 27.1573 16.38 28.624 16.38C30.5173 16.38 31.9973 16.8933 33.064 17.92C34.144 18.9333 34.7707 20.3 34.944 22.02H31.264C31.1173 21.1533 30.8307 20.4867 30.404 20.02C29.9907 19.5533 29.344 19.32 28.464 19.32C27.344 19.32 26.544 19.7133 26.064 20.5C25.5973 21.2733 25.364 22.3867 25.364 23.84C25.364 25.2933 25.5973 26.4133 26.064 27.2C26.544 27.9867 27.344 28.38 28.464 28.38C29.3573 28.38 30.0107 28.1467 30.424 27.68C30.8507 27.2 31.1307 26.52 31.264 25.64H34.944C34.8373 26.76 34.524 27.7467 34.004 28.6C33.484 29.4533 32.7573 30.12 31.824 30.6C30.904 31.08 29.804 31.32 28.524 31.32ZM42.8832 25.1C42.8832 24.3533 42.7499 23.8267 42.4832 23.52C42.2299 23.2 41.8299 23.04 41.2832 23.04C40.0032 23.04 39.3632 23.72 39.3632 25.08V31H36.1632V16.7H39.3632V22.24H39.4032C40.0965 21.04 41.2165 20.44 42.7632 20.44C43.7765 20.44 44.5832 20.76 45.1832 21.4C45.7832 22.04 46.0832 22.9333 46.0832 24.08V31H42.8832V25.1ZM47.7843 20.76H50.9843V31H47.7843V20.76ZM47.7843 16.7H50.9843V19.54H47.7843V16.7ZM57.5852 31.34C56.5186 31.34 55.5852 31.1133 54.7852 30.66C53.9986 30.1933 53.3852 29.5467 52.9452 28.72C52.5186 27.8933 52.3052 26.9467 52.3052 25.88C52.3052 24.8267 52.5186 23.8867 52.9452 23.06C53.3719 22.2333 53.9786 21.5867 54.7652 21.12C55.5519 20.6533 56.4652 20.42 57.5052 20.42C58.9452 20.42 60.1052 20.8067 60.9852 21.58C61.8786 22.34 62.3919 23.34 62.5252 24.58H59.3052C59.1719 23.4067 58.5919 22.82 57.5652 22.82C56.9119 22.82 56.4186 23.0867 56.0852 23.62C55.7519 24.1533 55.5852 24.9067 55.5852 25.88C55.5852 26.8533 55.7519 27.6067 56.0852 28.14C56.4186 28.6733 56.9119 28.94 57.5652 28.94C58.1386 28.94 58.5586 28.78 58.8252 28.46C59.0919 28.1267 59.2519 27.6867 59.3052 27.14H62.5252C62.4719 27.9533 62.2386 28.68 61.8252 29.32C61.4119 29.9467 60.8386 30.44 60.1052 30.8C59.3852 31.16 58.5452 31.34 57.5852 31.34ZM63.7218 16.7H66.9218V24.56L70.3418 20.76H73.7418L70.1218 24.6L74.1618 31H70.4618L68.0418 26.78L66.9218 27.96V31H63.7218V16.7ZM80.8398 31.32C80.1731 31.32 79.5731 31.18 79.0398 30.9C78.5064 30.62 78.1198 30.3133 77.8798 29.98H77.8398V34.54H74.6398V20.76H77.8398V21.78H77.8798C78.1198 21.4467 78.5064 21.14 79.0398 20.86C79.5731 20.58 80.1731 20.44 80.8398 20.44C81.7464 20.44 82.5331 20.66 83.1998 21.1C83.8664 21.54 84.3798 22.1733 84.7398 23C85.1131 23.8133 85.2998 24.7733 85.2998 25.88C85.2998 26.9867 85.1131 27.9533 84.7398 28.78C84.3798 29.5933 83.8664 30.22 83.1998 30.66C82.5331 31.1 81.7464 31.32 80.8398 31.32ZM77.8998 25.88C77.8998 26.8667 78.0798 27.62 78.4398 28.14C78.7998 28.66 79.3064 28.92 79.9598 28.92C80.6131 28.92 81.1198 28.66 81.4798 28.14C81.8398 27.62 82.0198 26.8667 82.0198 25.88C82.0198 24.8933 81.8398 24.14 81.4798 23.62C81.1198 23.1 80.6131 22.84 79.9598 22.84C79.3064 22.84 78.7998 23.1 78.4398 23.62C78.0798 24.14 77.8998 24.8933 77.8998 25.88ZM91.5315 31.34C90.4382 31.34 89.4915 31.1133 88.6915 30.66C87.8915 30.1933 87.2782 29.5467 86.8515 28.72C86.4248 27.8933 86.2115 26.9467 86.2115 25.88C86.2115 24.8667 86.4182 23.9467 86.8315 23.12C87.2448 22.2933 87.8515 21.64 88.6515 21.16C89.4648 20.6667 90.4248 20.42 91.5315 20.42C93.2648 20.42 94.5715 20.92 95.4515 21.92C96.3315 22.9067 96.7715 24.3533 96.7715 26.26V26.74H89.4115C89.4115 27.42 89.6182 27.96 90.0315 28.36C90.4582 28.7467 90.9848 28.94 91.6115 28.94C92.5582 28.94 93.1648 28.5933 93.4315 27.9H96.6915C96.3982 28.98 95.8115 29.8267 94.9315 30.44C94.0648 31.04 92.9315 31.34 91.5315 31.34ZM93.5515 24.76C93.5515 24.1067 93.3715 23.6067 93.0115 23.26C92.6515 22.9133 92.1582 22.74 91.5315 22.74C90.9182 22.74 90.4248 22.9133 90.0515 23.26C89.6782 23.6067 89.4715 24.1067 89.4315 24.76H93.5515ZM100.956 31.32C99.9563 31.32 99.163 31.0467 98.5763 30.5C97.9897 29.9533 97.6963 29.2267 97.6963 28.32C97.6963 27.3333 98.0363 26.5867 98.7163 26.08C99.4097 25.5733 100.376 25.1867 101.616 24.92C101.696 24.8933 101.843 24.8667 102.056 24.84C102.803 24.68 103.363 24.52 103.736 24.36C104.123 24.1867 104.316 23.9 104.316 23.5C104.316 23.2067 104.203 22.98 103.976 22.82C103.75 22.66 103.41 22.58 102.956 22.58C102.37 22.58 101.93 22.7 101.636 22.94C101.356 23.18 101.19 23.5533 101.136 24.06H98.0963C98.1497 22.9933 98.5897 22.12 99.4163 21.44C100.243 20.76 101.47 20.42 103.096 20.42C104.536 20.42 105.616 20.7533 106.336 21.42C107.056 22.0733 107.416 23.16 107.416 24.68V28.64C107.416 28.9333 107.443 29.14 107.496 29.26C107.55 29.3667 107.65 29.42 107.796 29.42C107.89 29.42 107.976 29.4133 108.056 29.4V30.92C107.416 31.04 106.83 31.1 106.296 31.1C105.683 31.1 105.23 30.9933 104.936 30.78C104.643 30.5533 104.456 30.2133 104.376 29.76H104.336C103.963 30.24 103.483 30.62 102.896 30.9C102.31 31.18 101.663 31.32 100.956 31.32ZM100.976 27.98C100.976 28.3667 101.09 28.6533 101.316 28.84C101.543 29.0267 101.87 29.12 102.296 29.12C102.91 29.12 103.396 28.9 103.756 28.46C104.13 28.02 104.316 27.4867 104.316 26.86V26C104.01 26.12 103.43 26.28 102.576 26.48C102.003 26.6133 101.59 26.8067 101.336 27.06C101.096 27.3 100.976 27.6067 100.976 27.98ZM113.945 31.32C112.265 31.32 111.012 30.9733 110.185 30.28C109.359 29.5867 108.925 28.6933 108.885 27.6H111.885C111.979 28.6133 112.645 29.12 113.885 29.12C114.792 29.12 115.245 28.8267 115.245 28.24C115.245 27.9867 115.165 27.7867 115.005 27.64C114.845 27.48 114.639 27.36 114.385 27.28C114.145 27.2 113.765 27.1067 113.245 27L112.745 26.88C111.639 26.6267 110.752 26.26 110.085 25.78C109.419 25.3 109.085 24.5933 109.085 23.66C109.085 22.6867 109.479 21.9067 110.265 21.32C111.052 20.7333 112.152 20.44 113.565 20.44C115.099 20.44 116.245 20.7667 117.005 21.42C117.765 22.0733 118.172 22.9 118.225 23.9H115.225C115.172 23.4733 115.019 23.16 114.765 22.96C114.525 22.7467 114.145 22.64 113.625 22.64C112.785 22.64 112.365 22.9133 112.365 23.46C112.365 23.74 112.472 23.9333 112.685 24.04C112.899 24.1467 113.332 24.2733 113.985 24.42L114.505 24.54C115.345 24.74 116.039 24.96 116.585 25.2C117.145 25.4267 117.605 25.7667 117.965 26.22C118.339 26.66 118.525 27.2533 118.525 28C118.525 29.0667 118.132 29.8867 117.345 30.46C116.559 31.0333 115.425 31.32 113.945 31.32Z" fill="#122E21"/>
</svg>
