<svg width="140" height="48" viewBox="0 0 140 48" fill="none" xmlns="http://www.w3.org/2000/svg">
<rect x="0.5" y="0.5" width="139" height="47" rx="23.5" fill="#FF8754" stroke="#122E21"/>
<path d="M17.5887 16.7H28.2287V19.64H21.1887V22.78H26.9287V25.72H21.1887V31H17.5887V16.7ZM29.5343 16.7H32.7343V31H29.5343V16.7ZM37.3352 31.32C36.3352 31.32 35.5419 31.0467 34.9552 30.5C34.3686 29.9533 34.0752 29.2267 34.0752 28.32C34.0752 27.3333 34.4152 26.5867 35.0952 26.08C35.7886 25.5733 36.7552 25.1867 37.9952 24.92C38.0752 24.8933 38.2219 24.8667 38.4352 24.84C39.1819 24.68 39.7419 24.52 40.1152 24.36C40.5019 24.1867 40.6952 23.9 40.6952 23.5C40.6952 23.2067 40.5819 22.98 40.3552 22.82C40.1286 22.66 39.7886 22.58 39.3352 22.58C38.7486 22.58 38.3086 22.7 38.0152 22.94C37.7352 23.18 37.5686 23.5533 37.5152 24.06H34.4752C34.5286 22.9933 34.9686 22.12 35.7952 21.44C36.6219 20.76 37.8486 20.42 39.4752 20.42C40.9152 20.42 41.9952 20.7533 42.7152 21.42C43.4352 22.0733 43.7952 23.16 43.7952 24.68V28.64C43.7952 28.9333 43.8219 29.14 43.8752 29.26C43.9286 29.3667 44.0286 29.42 44.1752 29.42C44.2686 29.42 44.3552 29.4133 44.4352 29.4V30.92C43.7952 31.04 43.2086 31.1 42.6752 31.1C42.0619 31.1 41.6086 30.9933 41.3152 30.78C41.0219 30.5533 40.8352 30.2133 40.7552 29.76H40.7152C40.3419 30.24 39.8619 30.62 39.2752 30.9C38.6886 31.18 38.0419 31.32 37.3352 31.32ZM37.3552 27.98C37.3552 28.3667 37.4686 28.6533 37.6952 28.84C37.9219 29.0267 38.2486 29.12 38.6752 29.12C39.2886 29.12 39.7752 28.9 40.1352 28.46C40.5086 28.02 40.6952 27.4867 40.6952 26.86V26C40.3886 26.12 39.8086 26.28 38.9552 26.48C38.3819 26.6133 37.9686 26.8067 37.7152 27.06C37.4752 27.3 37.3552 27.6067 37.3552 27.98ZM52.5043 25.1C52.5043 24.3533 52.371 23.8267 52.1043 23.52C51.851 23.2 51.451 23.04 50.9043 23.04C49.6243 23.04 48.9843 23.72 48.9843 25.08V31H45.7843V20.76H48.9843V22.24H49.0243C49.7176 21.04 50.8376 20.44 52.3843 20.44C53.3976 20.44 54.2043 20.76 54.8043 21.4C55.4043 22.04 55.7043 22.9333 55.7043 24.08V31H52.5043V25.1ZM57.4054 16.7H60.6054V24.56L64.0254 20.76H67.4254L63.8054 24.6L67.8454 31H64.1454L61.7254 26.78L60.6054 27.96V31H57.4054V16.7ZM77.8995 31.32C76.6461 31.32 75.5195 31.1133 74.5195 30.7C73.5328 30.2867 72.7528 29.6933 72.1795 28.92C71.6195 28.1333 71.3395 27.2067 71.3395 26.14H74.9795C74.9795 26.9267 75.2395 27.5067 75.7595 27.88C76.2928 28.24 76.9928 28.42 77.8595 28.42C78.5128 28.42 79.0128 28.3067 79.3595 28.08C79.7061 27.84 79.8795 27.5267 79.8795 27.14C79.8795 26.78 79.7595 26.4867 79.5195 26.26C79.2928 26.0333 78.9861 25.8467 78.5995 25.7C78.2261 25.54 77.6728 25.3533 76.9395 25.14L76.4795 25C75.5061 24.7067 74.6861 24.3933 74.0195 24.06C73.3528 23.7267 72.8128 23.2867 72.3995 22.74C71.9861 22.1933 71.7795 21.52 71.7795 20.72C71.7795 19.24 72.2861 18.1467 73.2995 17.44C74.3128 16.7333 75.6461 16.38 77.2995 16.38C78.4195 16.38 79.4328 16.5733 80.3395 16.96C81.2461 17.3333 81.9661 17.8733 82.4995 18.58C83.0461 19.2733 83.3328 20.0933 83.3595 21.04H79.7195C79.6395 20.4933 79.3861 20.0667 78.9595 19.76C78.5461 19.44 77.9928 19.28 77.2995 19.28C76.7395 19.28 76.2928 19.38 75.9595 19.58C75.6261 19.7667 75.4595 20.06 75.4595 20.46C75.4595 20.7667 75.5461 21.0267 75.7195 21.24C75.9061 21.44 76.1728 21.6133 76.5195 21.76C76.8795 21.9067 77.3995 22.08 78.0795 22.28C79.3195 22.6533 80.2928 22.9867 80.9995 23.28C81.7061 23.5733 82.3061 24.0067 82.7995 24.58C83.3061 25.14 83.5595 25.88 83.5595 26.8C83.5595 27.7067 83.3328 28.5 82.8795 29.18C82.4395 29.86 81.7928 30.3867 80.9395 30.76C80.0861 31.1333 79.0728 31.32 77.8995 31.32ZM88.7496 31.2C87.6296 31.2 86.8163 30.9267 86.3096 30.38C85.8029 29.82 85.5496 28.92 85.5496 27.68V23.16H84.1296V20.76H85.5496V17.9H88.7496V20.76H90.5296V23.16H88.7496V27.6C88.7496 28.1067 88.8296 28.4333 88.9896 28.58C89.1629 28.7267 89.4296 28.8 89.7896 28.8C90.0296 28.8 90.3163 28.7733 90.6496 28.72V30.98C90.0229 31.1267 89.3896 31.2 88.7496 31.2ZM96.6995 31.34C95.6061 31.34 94.6595 31.1133 93.8595 30.66C93.0595 30.1933 92.4461 29.5467 92.0195 28.72C91.5928 27.8933 91.3795 26.9467 91.3795 25.88C91.3795 24.8667 91.5861 23.9467 91.9995 23.12C92.4128 22.2933 93.0195 21.64 93.8195 21.16C94.6328 20.6667 95.5928 20.42 96.6995 20.42C98.4328 20.42 99.7395 20.92 100.619 21.92C101.499 22.9067 101.939 24.3533 101.939 26.26V26.74H94.5795C94.5795 27.42 94.7861 27.96 95.1995 28.36C95.6261 28.7467 96.1528 28.94 96.7795 28.94C97.7261 28.94 98.3328 28.5933 98.5995 27.9H101.859C101.566 28.98 100.979 29.8267 100.099 30.44C99.2328 31.04 98.0995 31.34 96.6995 31.34ZM98.7195 24.76C98.7195 24.1067 98.5395 23.6067 98.1795 23.26C97.8195 22.9133 97.3261 22.74 96.6995 22.74C96.0861 22.74 95.5928 22.9133 95.2195 23.26C94.8461 23.6067 94.6395 24.1067 94.5995 24.76H98.7195ZM106.124 31.32C105.124 31.32 104.331 31.0467 103.744 30.5C103.158 29.9533 102.864 29.2267 102.864 28.32C102.864 27.3333 103.204 26.5867 103.884 26.08C104.578 25.5733 105.544 25.1867 106.784 24.92C106.864 24.8933 107.011 24.8667 107.224 24.84C107.971 24.68 108.531 24.52 108.904 24.36C109.291 24.1867 109.484 23.9 109.484 23.5C109.484 23.2067 109.371 22.98 109.144 22.82C108.918 22.66 108.578 22.58 108.124 22.58C107.538 22.58 107.098 22.7 106.804 22.94C106.524 23.18 106.358 23.5533 106.304 24.06H103.264C103.318 22.9933 103.758 22.12 104.584 21.44C105.411 20.76 106.638 20.42 108.264 20.42C109.704 20.42 110.784 20.7533 111.504 21.42C112.224 22.0733 112.584 23.16 112.584 24.68V28.64C112.584 28.9333 112.611 29.14 112.664 29.26C112.718 29.3667 112.818 29.42 112.964 29.42C113.058 29.42 113.144 29.4133 113.224 29.4V30.92C112.584 31.04 111.998 31.1 111.464 31.1C110.851 31.1 110.398 30.9933 110.104 30.78C109.811 30.5533 109.624 30.2133 109.544 29.76H109.504C109.131 30.24 108.651 30.62 108.064 30.9C107.478 31.18 106.831 31.32 106.124 31.32ZM106.144 27.98C106.144 28.3667 106.258 28.6533 106.484 28.84C106.711 29.0267 107.038 29.12 107.464 29.12C108.078 29.12 108.564 28.9 108.924 28.46C109.298 28.02 109.484 27.4867 109.484 26.86V26C109.178 26.12 108.598 26.28 107.744 26.48C107.171 26.6133 106.758 26.8067 106.504 27.06C106.264 27.3 106.144 27.6067 106.144 27.98ZM114.573 16.7H117.773V24.56L121.193 20.76H124.593L120.973 24.6L125.013 31H121.313L118.893 26.78L117.773 27.96V31H114.573V16.7Z" fill="#122E21"/>
</svg>
