<svg preserveAspectRatio="none" width="100%" height="100%" overflow="visible" style="display: block;" viewBox="0 0 18.2405 18.3333" fill="none" xmlns="http://www.w3.org/2000/svg">
<path id="Icon" d="M0.833333 0.833343H1.9218C2.12682 0.833343 2.22933 0.833343 2.31182 0.871043C2.38452 0.904266 2.44612 0.957697 2.48929 1.02496C2.53828 1.1013 2.55278 1.20278 2.58177 1.40573L2.97619 4.16668M2.97619 4.16668L3.85277 10.6095C3.964 11.4271 4.01962 11.8359 4.21508 12.1436C4.38732 12.4148 4.63424 12.6304 4.92613 12.7645C5.25739 12.9167 5.66995 12.9167 6.49509 12.9167H13.6267C14.4121 12.9167 14.8048 12.9167 15.1258 12.7754C15.4088 12.6507 15.6515 12.4499 15.8269 12.1952C16.0258 11.9064 16.0993 11.5206 16.2462 10.749L17.3493 4.95808C17.401 4.68652 17.4268 4.55073 17.3894 4.44459C17.3565 4.35148 17.2916 4.27308 17.2063 4.22336C17.109 4.16668 16.9708 4.16668 16.6944 4.16668H2.97619ZM7.5 16.6667C7.5 17.1269 7.1269 17.5 6.66667 17.5C6.20643 17.5 5.83333 17.1269 5.83333 16.6667C5.83333 16.2064 6.20643 15.8333 6.66667 15.8333C7.1269 15.8333 7.5 16.2064 7.5 16.6667ZM14.1667 16.6667C14.1667 17.1269 13.7936 17.5 13.3333 17.5C12.8731 17.5 12.5 17.1269 12.5 16.6667C12.5 16.2064 12.8731 15.8333 13.3333 15.8333C13.7936 15.8333 14.1667 16.2064 14.1667 16.6667Z" stroke="var(--stroke-0, #A9A29D)" stroke-width="1.66667" stroke-linecap="round" stroke-linejoin="round"/>
</svg>
