<svg width="158" height="48" viewBox="0 0 158 48" fill="none" xmlns="http://www.w3.org/2000/svg">
<rect x="0.5" y="0.5" width="157" height="47" rx="23.5" fill="#FFC155" stroke="#122E21"/>
<path d="M23.9873 31.32C22.734 31.32 21.6073 31.1133 20.6073 30.7C19.6207 30.2867 18.8407 29.6933 18.2673 28.92C17.7073 28.1333 17.4273 27.2067 17.4273 26.14H21.0673C21.0673 26.9267 21.3273 27.5067 21.8473 27.88C22.3807 28.24 23.0807 28.42 23.9473 28.42C24.6007 28.42 25.1007 28.3067 25.4473 28.08C25.794 27.84 25.9673 27.5267 25.9673 27.14C25.9673 26.78 25.8473 26.4867 25.6073 26.26C25.3807 26.0333 25.074 25.8467 24.6873 25.7C24.314 25.54 23.7607 25.3533 23.0273 25.14L22.5673 25C21.594 24.7067 20.774 24.3933 20.1073 24.06C19.4407 23.7267 18.9007 23.2867 18.4873 22.74C18.074 22.1933 17.8673 21.52 17.8673 20.72C17.8673 19.24 18.374 18.1467 19.3873 17.44C20.4007 16.7333 21.734 16.38 23.3873 16.38C24.5073 16.38 25.5207 16.5733 26.4273 16.96C27.334 17.3333 28.054 17.8733 28.5873 18.58C29.134 19.2733 29.4207 20.0933 29.4473 21.04H25.8073C25.7273 20.4933 25.474 20.0667 25.0473 19.76C24.634 19.44 24.0807 19.28 23.3873 19.28C22.8273 19.28 22.3807 19.38 22.0473 19.58C21.714 19.7667 21.5473 20.06 21.5473 20.46C21.5473 20.7667 21.634 21.0267 21.8073 21.24C21.994 21.44 22.2607 21.6133 22.6073 21.76C22.9673 21.9067 23.4873 22.08 24.1673 22.28C25.4073 22.6533 26.3807 22.9867 27.0873 23.28C27.794 23.5733 28.394 24.0067 28.8873 24.58C29.394 25.14 29.6473 25.88 29.6473 26.8C29.6473 27.7067 29.4207 28.5 28.9673 29.18C28.5273 29.86 27.8807 30.3867 27.0273 30.76C26.174 31.1333 25.1607 31.32 23.9873 31.32ZM29.9775 20.76H33.1775L34.7175 27H34.7575L36.4775 20.76H39.2775L40.9975 27H41.0575L42.5975 20.76H45.6975L42.8375 31H39.8375L37.8575 24.52H37.8175L35.8375 31H32.8375L29.9775 20.76ZM51.2444 31.34C50.151 31.34 49.2044 31.1133 48.4044 30.66C47.6044 30.1933 46.991 29.5467 46.5644 28.72C46.1377 27.8933 45.9244 26.9467 45.9244 25.88C45.9244 24.8667 46.131 23.9467 46.5444 23.12C46.9577 22.2933 47.5644 21.64 48.3644 21.16C49.1777 20.6667 50.1377 20.42 51.2444 20.42C52.9777 20.42 54.2844 20.92 55.1644 21.92C56.0444 22.9067 56.4844 24.3533 56.4844 26.26V26.74H49.1244C49.1244 27.42 49.331 27.96 49.7444 28.36C50.171 28.7467 50.6977 28.94 51.3244 28.94C52.271 28.94 52.8777 28.5933 53.1444 27.9H56.4044C56.111 28.98 55.5244 29.8267 54.6444 30.44C53.7777 31.04 52.6444 31.34 51.2444 31.34ZM53.2644 24.76C53.2644 24.1067 53.0844 23.6067 52.7244 23.26C52.3644 22.9133 51.871 22.74 51.2444 22.74C50.631 22.74 50.1377 22.9133 49.7644 23.26C49.391 23.6067 49.1844 24.1067 49.1444 24.76H53.2644ZM62.7092 31.34C61.6159 31.34 60.6692 31.1133 59.8692 30.66C59.0692 30.1933 58.4559 29.5467 58.0292 28.72C57.6026 27.8933 57.3892 26.9467 57.3892 25.88C57.3892 24.8667 57.5959 23.9467 58.0092 23.12C58.4226 22.2933 59.0292 21.64 59.8292 21.16C60.6426 20.6667 61.6026 20.42 62.7092 20.42C64.4426 20.42 65.7492 20.92 66.6292 21.92C67.5092 22.9067 67.9492 24.3533 67.9492 26.26V26.74H60.5892C60.5892 27.42 60.7959 27.96 61.2092 28.36C61.6359 28.7467 62.1626 28.94 62.7892 28.94C63.7359 28.94 64.3426 28.5933 64.6092 27.9H67.8692C67.5759 28.98 66.9892 29.8267 66.1092 30.44C65.2426 31.04 64.1092 31.34 62.7092 31.34ZM64.7292 24.76C64.7292 24.1067 64.5492 23.6067 64.1892 23.26C63.8292 22.9133 63.3359 22.74 62.7092 22.74C62.0959 22.74 61.6026 22.9133 61.2292 23.26C60.8559 23.6067 60.6492 24.1067 60.6092 24.76H64.7292ZM73.1188 31.2C71.9988 31.2 71.1854 30.9267 70.6788 30.38C70.1721 29.82 69.9188 28.92 69.9188 27.68V23.16H68.4988V20.76H69.9188V17.9H73.1188V20.76H74.8988V23.16H73.1188V27.6C73.1188 28.1067 73.1988 28.4333 73.3587 28.58C73.5321 28.7267 73.7988 28.8 74.1588 28.8C74.3988 28.8 74.6854 28.7733 75.0188 28.72V30.98C74.3921 31.1267 73.7588 31.2 73.1188 31.2ZM80.532 16.7H87.472C88.992 16.7 90.1787 17.0933 91.032 17.88C91.8854 18.6533 92.312 19.78 92.312 21.26C92.312 22.74 91.8854 23.8733 91.032 24.66C90.1787 25.4333 88.992 25.82 87.472 25.82H84.132V31H80.532V16.7ZM86.632 22.88C87.2854 22.88 87.7787 22.7533 88.112 22.5C88.4587 22.2467 88.632 21.8333 88.632 21.26C88.632 20.6867 88.4587 20.2733 88.112 20.02C87.7787 19.7667 87.2854 19.64 86.632 19.64H84.132V22.88H86.632ZM97.9855 31.34C96.8788 31.34 95.9121 31.1133 95.0855 30.66C94.2721 30.2067 93.6455 29.5733 93.2055 28.76C92.7655 27.9333 92.5455 26.98 92.5455 25.9C92.5455 24.82 92.7655 23.8667 93.2055 23.04C93.6455 22.2133 94.2788 21.5733 95.1055 21.12C95.9455 20.6533 96.9255 20.42 98.0455 20.42C99.1521 20.42 100.112 20.6467 100.925 21.1C101.752 21.5533 102.385 22.1933 102.825 23.02C103.265 23.8333 103.485 24.7733 103.485 25.84C103.485 26.92 103.265 27.88 102.825 28.72C102.385 29.5467 101.752 30.1933 100.925 30.66C100.099 31.1133 99.1188 31.34 97.9855 31.34ZM95.7855 25.88C95.7855 26.8667 95.9788 27.6267 96.3655 28.16C96.7521 28.68 97.3055 28.94 98.0255 28.94C98.7321 28.94 99.2788 28.68 99.6655 28.16C100.052 27.6267 100.245 26.8667 100.245 25.88C100.245 24.8933 100.052 24.14 99.6655 23.62C99.2788 23.0867 98.7321 22.82 98.0255 22.82C97.3055 22.82 96.7521 23.0867 96.3655 23.62C95.9788 24.14 95.7855 24.8933 95.7855 25.88ZM108.607 31.2C107.487 31.2 106.674 30.9267 106.167 30.38C105.66 29.82 105.407 28.92 105.407 27.68V23.16H103.987V20.76H105.407V17.9H108.607V20.76H110.387V23.16H108.607V27.6C108.607 28.1067 108.687 28.4333 108.847 28.58C109.02 28.7267 109.287 28.8 109.647 28.8C109.887 28.8 110.174 28.7733 110.507 28.72V30.98C109.88 31.1267 109.247 31.2 108.607 31.2ZM114.732 31.32C113.732 31.32 112.938 31.0467 112.352 30.5C111.765 29.9533 111.472 29.2267 111.472 28.32C111.472 27.3333 111.812 26.5867 112.492 26.08C113.185 25.5733 114.152 25.1867 115.392 24.92C115.472 24.8933 115.618 24.8667 115.832 24.84C116.578 24.68 117.138 24.52 117.512 24.36C117.898 24.1867 118.092 23.9 118.092 23.5C118.092 23.2067 117.978 22.98 117.752 22.82C117.525 22.66 117.185 22.58 116.732 22.58C116.145 22.58 115.705 22.7 115.412 22.94C115.132 23.18 114.965 23.5533 114.912 24.06H111.872C111.925 22.9933 112.365 22.12 113.192 21.44C114.018 20.76 115.245 20.42 116.872 20.42C118.312 20.42 119.392 20.7533 120.112 21.42C120.832 22.0733 121.192 23.16 121.192 24.68V28.64C121.192 28.9333 121.218 29.14 121.272 29.26C121.325 29.3667 121.425 29.42 121.572 29.42C121.665 29.42 121.752 29.4133 121.832 29.4V30.92C121.192 31.04 120.605 31.1 120.072 31.1C119.458 31.1 119.005 30.9933 118.712 30.78C118.418 30.5533 118.232 30.2133 118.152 29.76H118.112C117.738 30.24 117.258 30.62 116.672 30.9C116.085 31.18 115.438 31.32 114.732 31.32ZM114.752 27.98C114.752 28.3667 114.865 28.6533 115.092 28.84C115.318 29.0267 115.645 29.12 116.072 29.12C116.685 29.12 117.172 28.9 117.532 28.46C117.905 28.02 118.092 27.4867 118.092 26.86V26C117.785 26.12 117.205 26.28 116.352 26.48C115.778 26.6133 115.365 26.8067 115.112 27.06C114.872 27.3 114.752 27.6067 114.752 27.98ZM126.966 31.2C125.846 31.2 125.033 30.9267 124.526 30.38C124.02 29.82 123.766 28.92 123.766 27.68V23.16H122.346V20.76H123.766V17.9H126.966V20.76H128.746V23.16H126.966V27.6C126.966 28.1067 127.046 28.4333 127.206 28.58C127.38 28.7267 127.646 28.8 128.006 28.8C128.246 28.8 128.533 28.7733 128.866 28.72V30.98C128.24 31.1267 127.606 31.2 126.966 31.2ZM135.036 31.34C133.93 31.34 132.963 31.1133 132.136 30.66C131.323 30.2067 130.696 29.5733 130.256 28.76C129.816 27.9333 129.596 26.98 129.596 25.9C129.596 24.82 129.816 23.8667 130.256 23.04C130.696 22.2133 131.33 21.5733 132.156 21.12C132.996 20.6533 133.976 20.42 135.096 20.42C136.203 20.42 137.163 20.6467 137.976 21.1C138.803 21.5533 139.436 22.1933 139.876 23.02C140.316 23.8333 140.536 24.7733 140.536 25.84C140.536 26.92 140.316 27.88 139.876 28.72C139.436 29.5467 138.803 30.1933 137.976 30.66C137.15 31.1133 136.17 31.34 135.036 31.34ZM132.836 25.88C132.836 26.8667 133.03 27.6267 133.416 28.16C133.803 28.68 134.356 28.94 135.076 28.94C135.783 28.94 136.33 28.68 136.716 28.16C137.103 27.6267 137.296 26.8667 137.296 25.88C137.296 24.8933 137.103 24.14 136.716 23.62C136.33 23.0867 135.783 22.82 135.076 22.82C134.356 22.82 133.803 23.0867 133.416 23.62C133.03 24.14 132.836 24.8933 132.836 25.88Z" fill="#122E21"/>
</svg>
