<svg width="24" height="24" viewBox="0 0 24 24" fill="none" xmlns="http://www.w3.org/2000/svg">
<path d="M12 0.5C18.3513 0.5 23.5 5.64872 23.5 12C23.5 18.3513 18.3513 23.5 12 23.5C5.64872 23.5 0.5 18.3513 0.5 12C0.5 5.64872 5.64872 0.5 12 0.5Z" fill="#FAFAF9" stroke="#E7E5E4"/>
<path d="M7.81218 14.8017V10.2729H8.71325V14.8017H7.81218ZM6 12.9861V12.0884H10.5288V12.9861H6Z" fill="#57534E"/>
<path d="M13.5748 16.0478C13.1148 16.0478 12.7039 15.9685 12.3421 15.8099C11.9826 15.6514 11.6978 15.4314 11.4879 15.15C11.2802 14.8664 11.1686 14.5382 11.153 14.1652H12.2048C12.2182 14.3684 12.2863 14.5449 12.4091 14.6945C12.5342 14.8419 12.6972 14.9558 12.8982 15.0361C13.0991 15.1165 13.3224 15.1567 13.5681 15.1567C13.8383 15.1567 14.0772 15.1098 14.2849 15.016C14.4948 14.9223 14.659 14.7916 14.7773 14.6241C14.8957 14.4544 14.9549 14.259 14.9549 14.0379C14.9549 13.8079 14.8957 13.6058 14.7773 13.4316C14.6612 13.2552 14.4904 13.1168 14.2648 13.0163C14.0415 12.9158 13.7713 12.8655 13.4542 12.8655H12.8747V12.0214H13.4542C13.7088 12.0214 13.9321 11.9756 14.1241 11.8841C14.3184 11.7925 14.4703 11.6652 14.5797 11.5022C14.6891 11.337 14.7438 11.1438 14.7438 10.9227C14.7438 10.7106 14.6958 10.5263 14.5998 10.37C14.506 10.2115 14.372 10.0875 14.1978 9.99821C14.0259 9.90888 13.8227 9.86422 13.5882 9.86422C13.3649 9.86422 13.1561 9.90553 12.9618 9.98816C12.7697 10.0686 12.6134 10.1847 12.4928 10.3365C12.3722 10.4861 12.3075 10.6659 12.2986 10.8758H11.297C11.3082 10.5051 11.4176 10.1791 11.6253 9.89772C11.8352 9.61634 12.1121 9.39638 12.456 9.23783C12.7999 9.07928 13.1818 9 13.6016 9C14.0415 9 14.4211 9.08598 14.7405 9.25793C15.0621 9.42764 15.3099 9.65431 15.4841 9.93791C15.6605 10.2215 15.7476 10.5319 15.7454 10.8691C15.7476 11.2532 15.6404 11.5793 15.4238 11.8472C15.2094 12.1152 14.9236 12.295 14.5663 12.3865V12.4401C15.0219 12.5094 15.3747 12.6902 15.6248 12.9828C15.8771 13.2753 16.0022 13.6382 16 14.0714C16.0022 14.4488 15.8972 14.7872 15.6851 15.0864C15.4752 15.3856 15.1882 15.6212 14.8242 15.7932C14.4602 15.9629 14.0437 16.0478 13.5748 16.0478Z" fill="#57534E"/>
</svg>
