<svg width="20" height="20" viewBox="0 0 20 20" fill="none" xmlns="http://www.w3.org/2000/svg">
<g clip-path="url(#clip0_279_8113)">
<path d="M4.16686 11.6667H15.1133C15.9573 11.6667 16.3793 11.6667 16.7153 11.5094C17.0112 11.3708 17.2599 11.1482 17.4304 10.8694C17.6238 10.5529 17.6705 10.1334 17.7637 9.29457L18.2512 4.90704C18.2796 4.65082 18.2939 4.52271 18.2527 4.42355C18.2165 4.33646 18.1518 4.26422 18.0693 4.21864C17.9753 4.16675 17.8464 4.16675 17.5886 4.16675H3.7502M1.66675 1.66675H2.70711C2.92763 1.66675 3.03789 1.66675 3.12415 1.70869C3.2001 1.7456 3.26303 1.80473 3.30461 1.87822C3.35185 1.96169 3.35873 2.07174 3.37248 2.29183L4.12768 14.375C4.14144 14.5951 4.14831 14.7051 4.19555 14.7886C4.23713 14.8621 4.30007 14.9212 4.37601 14.9581C4.46227 15.0001 4.57253 15.0001 4.79305 15.0001H15.8334M6.25008 17.9167H6.25842M13.7501 17.9167H13.7584M6.66675 17.9167C6.66675 18.1469 6.4802 18.3334 6.25008 18.3334C6.01996 18.3334 5.83341 18.1469 5.83341 17.9167C5.83341 17.6866 6.01996 17.5001 6.25008 17.5001C6.4802 17.5001 6.66675 17.6866 6.66675 17.9167ZM14.1667 17.9167C14.1667 18.1469 13.9802 18.3334 13.7501 18.3334C13.52 18.3334 13.3334 18.1469 13.3334 17.9167C13.3334 17.6866 13.52 17.5001 13.7501 17.5001C13.9802 17.5001 14.1667 17.6866 14.1667 17.9167Z" stroke="#A9A29D" stroke-width="1.66667" stroke-linecap="round" stroke-linejoin="round"/>
</g>
<defs>
<clipPath id="clip0_279_8113">
<rect width="20" height="20" fill="white"/>
</clipPath>
</defs>
</svg>
