<svg width="1467" height="468" viewBox="0 0 1467 468" fill="none" xmlns="http://www.w3.org/2000/svg">
<path d="M136.242 468C116.147 468 99.8864 465.953 87.4373 461.858C74.9881 457.763 63.0802 452.488 51.7362 446.012C46.5039 443.008 42.9857 441.494 41.2491 441.494C39.0615 441.494 36.8738 443.341 34.7088 446.991C32.5212 450.663 30.7846 455.715 29.4765 462.191H0V305.116H32.7467C39.7381 349.069 52.2774 382.252 70.4099 404.662C88.5198 427.073 111.997 438.267 140.82 438.267C160.892 438.267 176.949 433.327 188.97 423.401C200.968 413.498 206.99 399.922 206.99 382.674C206.99 372.326 205.456 362.867 202.411 354.233C199.344 345.62 194.315 337.43 187.346 329.663C180.355 321.896 171.176 313.929 159.832 305.739L72.7103 245.628C49.12 229.249 31.4386 210.621 19.6435 189.724C7.87093 168.826 1.96209 145.436 1.96209 119.576C1.96209 85.5481 13.3062 58.8199 36.0168 39.4136C58.7275 20.0295 89.7376 10.3263 129.025 10.3263C148.24 10.3263 163.959 12.485 176.183 16.7802C188.406 21.0977 199.976 26.2609 210.891 32.292C216.124 35.3186 219.191 36.8097 220.07 36.8097C221.807 36.8097 223.566 35.0961 225.303 31.6466C227.039 28.197 228.573 23.0339 229.881 16.1348H259.357V156.408H226.611C220.499 115.904 209.673 86.3938 194.18 67.8554C178.663 49.3393 156.945 40.059 129.002 40.059C109.359 40.059 93.301 45.3334 80.8518 55.9045C68.4027 66.4756 62.1781 80.5853 62.1781 98.2335C62.1781 113.322 66.1023 126.898 73.9732 138.96C81.8442 151.022 95.1503 163.307 113.937 175.814L196.48 230.762C220.07 246.719 237.752 264.923 249.547 285.376C261.342 305.85 267.228 328.795 267.228 354.21C267.228 389.996 255.546 417.882 232.181 437.911C208.816 457.941 176.837 467.978 136.219 467.978L136.242 468Z" fill="#122E21"/>
<path d="M415.31 468C390.412 468 369.122 462.08 351.44 450.218C333.759 438.379 320.205 421.02 310.823 398.186C301.418 375.353 296.75 347.556 296.75 314.797C296.75 282.037 301.441 252.216 310.823 226.556C320.205 200.918 333.849 180.888 351.756 166.445C369.663 152.002 390.84 144.791 415.287 144.791C437.119 144.791 455.341 149.754 469.978 159.657C484.615 169.583 495.621 184.115 503.063 203.299C510.483 222.483 513.979 245.628 513.55 272.779H328.166V244.983H449.342C449.342 220.858 446.162 202.209 439.847 189.078C433.51 175.948 423.136 169.36 408.725 169.36C396.501 169.36 386.127 173.878 377.602 182.936C369.077 191.994 362.627 205.458 358.274 223.329C353.899 241.222 351.734 263.299 351.734 289.582C351.734 327.081 358.612 355.946 372.369 376.198C386.127 396.45 405.229 406.576 429.676 406.576C444.967 406.576 458.386 401.836 469.956 392.355C481.525 382.875 489.937 370.167 495.17 354.21L515.467 360.019C509.355 396.651 498.214 423.802 482.066 441.472C465.896 459.143 443.636 467.978 415.242 467.978L415.31 468Z" fill="#122E21"/>
<path d="M531.885 439.558C540.613 438.69 547.176 437.088 551.529 434.707C555.882 432.348 558.836 428.564 560.37 423.401C561.903 418.238 562.67 410.693 562.67 400.768V226.244C562.67 215.473 561.903 207.394 560.37 202.008C558.836 196.623 555.882 192.862 551.529 190.703C547.154 188.544 540.613 187.476 531.885 187.476V170.673L601.326 148.686H620.315V400.79C620.315 410.716 621.51 418.238 623.924 423.423C626.314 428.586 630.464 432.37 636.373 434.729C642.259 437.11 651.122 438.712 662.895 439.58V458.964H531.885V439.58V439.558ZM617.045 312.215L590.185 247.564H620.315C627.735 216.118 637.117 191.126 648.484 172.587C659.828 154.071 674.239 144.791 691.717 144.791C704.369 144.791 714.541 148.463 722.186 155.785C729.832 163.107 733.643 173.233 733.643 186.163C733.643 199.093 730.463 209.664 724.148 217.832C717.811 226.022 709.173 230.116 698.28 230.116C690.86 230.116 685.402 228.714 681.907 225.91C678.411 223.106 674.69 218.7 670.766 212.646C669.007 210.065 667.157 207.372 665.195 204.568C663.233 201.764 661.158 199.516 658.971 197.78C652.43 208.129 645.439 222.661 638.019 241.422C630.599 260.161 623.608 283.751 617.067 312.193L617.045 312.215Z" fill="#122E21"/>
<path d="M749.362 211.378C745.438 200.184 742.258 191.994 739.867 186.808C737.454 181.645 735.064 177.973 732.673 175.814C730.26 173.656 727.328 172.365 723.832 171.942V152.558H842.393V171.942C831.905 172.365 824.26 174.434 819.456 178.084C814.653 181.756 812.262 187.676 812.262 195.866C812.262 203.188 814.224 213.114 818.148 225.599L878.409 419.529H858.766L921.643 225.599C923.38 220.013 924.801 214.716 925.906 209.753C926.988 204.813 927.552 200.606 927.552 197.157C927.552 188.544 924.71 182.291 919.027 178.418C913.344 174.546 904.39 172.387 892.167 171.964V152.58H985.828V171.964C981.904 172.387 978.183 174.012 974.687 176.816C971.192 179.62 967.809 184.249 964.539 190.725C961.268 197.179 957.885 206.037 954.39 217.231L875.793 460.923H836.484L749.362 211.4V211.378Z" fill="#122E21"/>
<path d="M1078.2 468C1053.31 468 1032.02 462.08 1014.34 450.218C996.654 438.379 983.1 421.02 973.718 398.186C964.313 375.353 959.645 347.556 959.645 314.797C959.645 282.037 964.336 252.216 973.718 226.556C983.1 200.918 996.744 180.888 1014.65 166.445C1032.56 152.002 1053.73 144.791 1078.18 144.791C1100.01 144.791 1118.24 149.754 1132.87 159.657C1147.51 169.583 1158.52 184.115 1165.96 203.299C1173.38 222.483 1176.87 245.628 1176.44 272.779H991.061V244.983H1112.24C1112.24 220.858 1109.06 202.209 1102.74 189.078C1096.4 175.948 1086.03 169.36 1071.62 169.36C1059.4 169.36 1049.02 173.878 1040.5 182.936C1031.97 191.994 1025.52 205.458 1021.17 223.329C1016.79 241.222 1014.63 263.299 1014.63 289.582C1014.63 327.081 1021.51 355.946 1035.26 376.198C1049.02 396.45 1068.12 406.576 1092.57 406.576C1107.86 406.576 1121.28 401.836 1132.85 392.355C1144.42 382.875 1152.83 370.167 1158.06 354.21L1178.36 360.019C1172.25 396.651 1161.11 423.802 1144.96 441.472C1128.79 459.143 1106.53 467.978 1078.14 467.978L1078.2 468Z" fill="#122E21"/>
<path d="M1304.86 468C1283.46 468 1264.67 461.858 1248.52 449.573C1232.35 437.288 1219.93 419.84 1211.18 397.207C1202.43 374.574 1198.07 348.402 1198.07 318.669C1198.07 283.328 1203.31 252.527 1213.79 226.222C1224.28 199.939 1239.01 179.798 1258.02 165.777C1277.01 151.779 1299.18 144.769 1324.5 144.769C1341.1 144.769 1355.63 147.795 1368.08 153.826C1380.53 159.858 1389.79 168.047 1395.91 178.396H1378.88V38.7905H1436.52V390.441C1436.52 403.372 1437.27 413.075 1438.82 419.529C1440.36 425.983 1443.18 430.745 1447.35 433.75C1451.5 436.776 1457.72 438.712 1466.02 439.558V458.942H1388.08L1380.86 453.134L1378.9 412.407V248.878C1378.9 221.304 1374.98 201.586 1367.11 189.724C1359.24 177.884 1347.46 171.942 1331.74 171.942C1310.34 171.942 1293.43 183.581 1280.98 206.838C1268.53 230.117 1262.3 262.208 1262.3 303.157C1262.3 338.053 1267.87 365.649 1279.01 385.901C1290.16 406.153 1305.11 416.279 1323.9 416.279C1334.38 416.279 1344.53 413.364 1354.36 407.556C1364.2 401.747 1373.89 392.355 1383.52 379.447L1405.81 412.407H1378.95C1371.53 430.078 1361.27 443.764 1348.16 453.445C1335.06 463.126 1320.65 468 1304.93 468H1304.86ZM1378.88 77.5586C1378.88 66.3644 1377.77 58.1746 1375.61 52.9892C1373.42 47.826 1369.27 44.1539 1363.16 41.9952C1357.05 39.8365 1347.64 38.7682 1334.99 38.7682V21.9657L1417.53 -0.0222168H1436.52V89.8211H1378.88V77.5364V77.5586Z" fill="#122E21"/>
</svg>
