<svg width="695" height="382" viewBox="0 0 695 382" fill="none" xmlns="http://www.w3.org/2000/svg">
<g clip-path="url(#clip0_1_57)">
<path d="M337.803 0H-0.0300293V190.532H337.803V0Z" fill="#122E21"/>
<path d="M168.887 190.532H-0.0300293V379.959H168.887V190.532Z" fill="#EEEF83"/>
<path d="M337.803 190.532H168.887V379.959H337.803V190.532Z" fill="#FAEFE1"/>
<path d="M506.72 95.2678V0L337.803 0V95.2678L506.72 95.2678Z" fill="#80DDDC"/>
<path d="M506.72 190.536V95.2678L337.803 95.2678V190.536H506.72Z" fill="#FFC155"/>
<path d="M677 127.424V0L506.72 0V127.424L677 127.424Z" fill="#003030"/>
<path d="M506.72 285.248V189.98H337.803V285.248H506.72Z" fill="#FF8754"/>
<path d="M676.819 255.315V127.424L506.72 127.424V255.315H676.819Z" fill="#4D1A04"/>
<path d="M506.72 379.963V284.695H337.803V379.963H506.72Z" fill="#FF8782"/>
<path d="M676.815 382V255.315H506.72V382H676.815Z" fill="#3B102D"/>
<path d="M506.72 71.4675H482.983V95.2678H506.72V71.4675Z" fill="#FAEFE1"/>
<path d="M506.72 47.6462H482.983V71.4465H506.72V47.6462Z" fill="#DCECE2"/>
<path d="M506.72 23.8214H482.983V47.6216H506.72V23.8214Z" fill="#BFE9E4"/>
<path d="M506.72 0H482.983V23.8002H506.72V0Z" fill="#A1E6E5"/>
<path d="M506.72 165.905H482.983V189.427H506.72V165.905Z" fill="#FAEFE1"/>
<path d="M506.72 142.358H482.983V165.88H506.72V142.358Z" fill="#FCE6C3"/>
<path d="M506.72 118.811H482.983V142.334H506.72V118.811Z" fill="#FDDDA6"/>
<path d="M506.72 95.2678H482.983V118.79H506.72V95.2678Z" fill="#FFD488"/>
<path d="M506.72 260.895H482.983V284.695H506.72V260.895Z" fill="#FAEFE1"/>
<path d="M506.72 237.07H482.983V260.87H506.72V237.07Z" fill="#FCD4BD"/>
<path d="M506.72 213.249H482.983V237.049H506.72V213.249Z" fill="#FDBA9A"/>
<path d="M506.72 189.427H482.983V213.228H506.72V189.427Z" fill="#FF9F76"/>
<path d="M506.72 356.159H482.983V379.959H506.72V356.159Z" fill="#FAEFE1"/>
<path d="M506.72 332.338H482.983V356.138H506.72V332.338Z" fill="#FCD6CC"/>
<path d="M506.72 308.517H482.983V332.317H506.72V308.517Z" fill="#FDBEB6"/>
<path d="M506.72 284.692H482.983V308.492H506.72V284.692Z" fill="#FFA5A1"/>
<path d="M695 254.576H676.502V382H695V254.576Z" fill="#9D4C58"/>
<path d="M695 0H677V126.595H695V0Z" fill="#408786"/>
<path d="M695 126.595H676.502V254.576H695V126.595Z" fill="#A6512C"/>
</g>
<defs>
<clipPath id="clip0_1_57">
<rect width="695" height="382" fill="white"/>
</clipPath>
</defs>
</svg>
